<?xml version="1.0" encoding="UTF-8"?>
<svg version="1.1" xmlns="http://www.w3.org/2000/svg" width="256" height="256">
<path d="M0 0 C1.03834488 -0.00335861 2.07668976 -0.00671722 3.14649963 -0.01017761 C6.56667286 -0.0196481 9.98679692 -0.02162876 13.40698242 -0.02270508 C15.79440836 -0.02592036 18.18183411 -0.02928464 20.56925964 -0.03279114 C25.56994076 -0.03877264 30.57060462 -0.04063204 35.57128906 -0.04003906 C41.96322798 -0.0399375 48.35505569 -0.05358862 54.74696827 -0.07081127 C59.67734785 -0.08195702 64.60770077 -0.08395748 69.53809166 -0.08342934 C71.89388093 -0.08460561 74.24967097 -0.08900747 76.60544777 -0.0967617 C79.90761623 -0.10661356 83.20954604 -0.10366301 86.51171875 -0.09765625 C87.47464844 -0.10327576 88.43757812 -0.10889526 89.4296875 -0.11468506 C101.21147455 -0.06051936 112.33435695 2.13901487 121.26245117 10.33276367 C126.42637442 15.88733832 130.5556711 23.67011298 130.59521484 31.33789062 C130.6015947 32.17919022 130.60797455 33.02048981 130.61454773 33.88728333 C130.61621696 35.24668282 130.61621696 35.24668282 130.61791992 36.63354492 C130.62124832 37.56949997 130.62457672 38.50545502 130.62800598 39.46977234 C130.63306977 41.45103463 130.63541448 43.43230546 130.63525391 45.41357422 C130.63743518 48.43560982 130.65558234 51.45727729 130.67456055 54.47924805 C130.67749567 56.40567909 130.67947967 58.33211187 130.68041992 60.25854492 C130.68760544 61.15873856 130.69479095 62.05893219 130.70219421 62.98640442 C130.68486422 67.77852994 130.3127564 71.64306138 128.44995117 76.14526367 C129.06445633 76.15335052 129.67896149 76.16143738 130.31208801 76.16976929 C136.75334087 76.25635176 143.19430479 76.3558735 149.63525391 76.46264648 C152.03364173 76.50074432 154.43208297 76.53562934 156.83056641 76.56713867 C160.29373158 76.61320863 163.75653508 76.67113137 167.21948242 76.73120117 C168.27827103 76.74275238 169.33705963 76.75430359 170.42793274 76.76620483 C182.53134347 77.00192776 192.95733449 78.37404884 202.26245117 86.64526367 C202.98432617 87.47026367 203.70620117 88.29526367 204.44995117 89.14526367 C205.13057617 89.86713867 205.81120117 90.58901367 206.51245117 91.33276367 C213.3153423 101.20792822 213.0729259 111.1266505 212.97143555 122.72192383 C212.94999998 125.63862263 212.97129774 128.55285879 212.99682617 131.46948242 C213.02346954 149.5116759 213.02346954 149.5116759 208.44995117 157.14526367 C208.06129883 157.81025879 207.67264648 158.47525391 207.2722168 159.16040039 C203.99041018 164.47017221 198.84821447 169.32466032 192.69995117 170.80932617 C191.95745117 170.92018555 191.21495117 171.03104492 190.44995117 171.14526367 C192.91389924 180.52276015 196.05092661 187.68759535 202.12182617 195.21948242 C203.80285745 197.65697778 203.69147587 199.24696726 203.44995117 202.14526367 C197.52359379 205.0219262 192.64447678 203.68995454 186.44995117 202.14526367 C175.07420303 198.20351508 165.83716309 191.07381813 160.19995117 180.36791992 C159.4187793 178.89657593 159.4187793 178.89657593 158.62182617 177.39550781 C158.23510742 176.65292725 157.84838867 175.91034668 157.44995117 175.14526367 C156.39474274 175.13717682 155.3395343 175.12908997 154.25234985 175.12075806 C144.27781453 175.04306439 134.30341171 174.95526759 124.32905006 174.85773659 C119.20189716 174.80792287 114.07476337 174.76159214 108.94750977 174.72338867 C103.99369552 174.68634657 99.04004734 174.63993665 94.08637619 174.58720016 C92.20231431 174.56875631 90.31821698 174.55361198 88.4341011 174.54191971 C58.96389107 174.35259163 58.96389107 174.35259163 47.63745117 163.95776367 C42.47352792 158.40318902 38.34423124 150.62041436 38.3046875 142.95263672 C38.29830765 142.11133713 38.2919278 141.27003754 38.28535461 140.40324402 C38.28424179 139.49697769 38.28312897 138.59071136 38.28198242 137.65698242 C38.27698982 136.25304985 38.27698982 136.25304985 38.27189636 134.820755 C38.26683257 132.83949271 38.26448787 130.85822188 38.26464844 128.87695312 C38.26246716 125.85491752 38.24432 122.83325006 38.2253418 119.8112793 C38.22240668 117.88484825 38.22042267 115.95841547 38.21948242 114.03198242 C38.21229691 113.13178879 38.20511139 112.23159515 38.19770813 111.30412292 C38.20078476 110.45336685 38.20386139 109.60261078 38.20703125 108.72607422 C38.20560623 107.98455612 38.20418121 107.24303802 38.20271301 106.47904968 C38.44995117 104.14526367 38.44995117 104.14526367 40.44995117 98.14526367 C30.87995117 98.14526367 21.30995117 98.14526367 11.44995117 98.14526367 C9.46995117 101.77526367 7.48995117 105.40526367 5.44995117 109.14526367 C-0.44810436 117.66467722 -10.05955219 123.9261309 -20.21020508 125.83276367 C-30.96555259 127.53492783 -30.96555259 127.53492783 -34.55004883 125.14526367 C-34.24800658 120.11122626 -33.35974156 117.57156012 -29.95239258 113.86791992 C-25.33063488 108.19049612 -22.99075152 101.21780417 -21.55004883 94.14526367 C-22.39567383 93.91838867 -23.24129883 93.69151367 -24.11254883 93.45776367 C-31.99501566 90.44809452 -36.62291211 85.58199672 -40.55004883 78.14526367 C-43.25427846 71.98965556 -44.00626485 66.99752497 -43.98364258 60.30932617 C-43.98888443 59.38993256 -43.99412628 58.47053894 -43.99952698 57.52328491 C-44.00591701 55.5886943 -44.00464956 53.65406467 -43.99609375 51.71948242 C-43.98759203 48.78517292 -44.01637419 45.85281856 -44.0480957 42.91870117 C-44.0497084 41.02807675 -44.04912887 39.13744893 -44.04614258 37.24682617 C-44.05737656 36.38296295 -44.06861053 35.51909973 -44.08018494 34.62905884 C-43.97979752 25.70088352 -40.84343561 16.66227334 -34.55004883 10.14526367 C-23.92106158 1.51175679 -13.28816088 -0.00621465 0 0 Z " fill="#75C8D1" transform="translate(43.550048828125,25.854736328125)"/>
<path d="M0 0 C1.03834488 -0.00335861 2.07668976 -0.00671722 3.14649963 -0.01017761 C6.56667286 -0.0196481 9.98679692 -0.02162876 13.40698242 -0.02270508 C15.79440836 -0.02592036 18.18183411 -0.02928464 20.56925964 -0.03279114 C25.56994076 -0.03877264 30.57060462 -0.04063204 35.57128906 -0.04003906 C41.96322798 -0.0399375 48.35505569 -0.05358862 54.74696827 -0.07081127 C59.67734785 -0.08195702 64.60770077 -0.08395748 69.53809166 -0.08342934 C71.89388093 -0.08460561 74.24967097 -0.08900747 76.60544777 -0.0967617 C79.90761623 -0.10661356 83.20954604 -0.10366301 86.51171875 -0.09765625 C87.47464844 -0.10327576 88.43757812 -0.10889526 89.4296875 -0.11468506 C101.21147455 -0.06051936 112.33435695 2.13901487 121.26245117 10.33276367 C126.42450341 15.88532578 130.54000854 23.65950189 130.61108398 31.32202148 C130.62069153 32.16009338 130.63029907 32.99816528 130.64019775 33.8616333 C130.64657257 35.21632721 130.64657257 35.21632721 130.65307617 36.59838867 C130.65877625 37.53197205 130.66447632 38.46555542 130.67034912 39.4274292 C130.67979689 41.40448881 130.68633222 43.38156415 130.69018555 45.35864258 C130.69986938 48.36983079 130.73088594 51.38033003 130.76245117 54.39135742 C130.76898372 56.31453046 130.7742332 58.23770838 130.77807617 60.16088867 C130.79042297 61.05592102 130.80276978 61.95095337 130.81549072 62.87310791 C130.79654194 68.24425988 130.51105893 74.08415592 126.44995117 78.14526367 C124.6007052 78.24776859 122.74758242 78.28097947 120.89550781 78.28710938 C119.11213768 78.29766106 119.11213768 78.29766106 117.29273987 78.3084259 C115.99497116 78.31259018 114.69720245 78.31675446 113.36010742 78.32104492 C112.01784987 78.33146998 110.67559973 78.34289267 109.33335876 78.35527039 C103.62608451 78.4076964 97.91893495 78.45559446 92.21142578 78.47119141 C88.72163248 78.48135344 85.23244137 78.51089502 81.7428875 78.55251122 C79.78123106 78.57061916 77.8194191 78.56818772 75.85768127 78.56526184 C65.72683067 78.70250785 57.54620047 80.4448764 50.01245117 87.58276367 C48.80782227 88.69458008 48.80782227 88.69458008 47.57885742 89.82885742 C45.34290536 92.02303595 45.34290536 92.02303595 44.24584961 94.77001953 C42.44995117 97.14526367 42.44995117 97.14526367 39.35888672 97.63012695 C38.11405518 97.5758252 36.86922363 97.52152344 35.58666992 97.46557617 C34.21104563 97.44304547 32.83539172 97.42226768 31.4597168 97.40307617 C29.29870275 97.34519406 27.14155462 97.27046822 24.98242188 97.1628418 C20.33236525 96.95411373 15.98340273 96.91410293 11.44995117 98.14526367 C8.349148 101.45909912 6.98555225 104.92876382 5.44995117 109.14526367 C-0.44810436 117.66467722 -10.05955219 123.9261309 -20.21020508 125.83276367 C-30.96555259 127.53492783 -30.96555259 127.53492783 -34.55004883 125.14526367 C-34.24800658 120.11122626 -33.35974156 117.57156012 -29.95239258 113.86791992 C-25.33063488 108.19049612 -22.99075152 101.21780417 -21.55004883 94.14526367 C-22.39567383 93.91838867 -23.24129883 93.69151367 -24.11254883 93.45776367 C-31.99501566 90.44809452 -36.62291211 85.58199672 -40.55004883 78.14526367 C-43.25427846 71.98965556 -44.00626485 66.99752497 -43.98364258 60.30932617 C-43.98888443 59.38993256 -43.99412628 58.47053894 -43.99952698 57.52328491 C-44.00591701 55.5886943 -44.00464956 53.65406467 -43.99609375 51.71948242 C-43.98759203 48.78517292 -44.01637419 45.85281856 -44.0480957 42.91870117 C-44.0497084 41.02807675 -44.04912887 39.13744893 -44.04614258 37.24682617 C-44.05737656 36.38296295 -44.06861053 35.51909973 -44.08018494 34.62905884 C-43.97979752 25.70088352 -40.84343561 16.66227334 -34.55004883 10.14526367 C-23.92106158 1.51175679 -13.28816088 -0.00621465 0 0 Z " fill="#4E7AD9" transform="translate(43.550048828125,25.854736328125)"/>
<path d="M0 0 C8.07904397 0.62146492 14.75616327 5.00704374 20 11 C20.680625 11.721875 21.36125 12.44375 22.0625 13.1875 C28.86539113 23.06266455 28.62297473 32.98138683 28.52148438 44.57666016 C28.50004881 47.49335896 28.52134657 50.40759512 28.546875 53.32421875 C28.57351837 71.36641223 28.57351837 71.36641223 24 79 C23.61134766 79.66499512 23.22269531 80.32999023 22.82226562 81.01513672 C19.54045901 86.32490854 14.3982633 91.17939665 8.25 92.6640625 C7.5075 92.77492188 6.765 92.88578125 6 93 C8.46394807 102.37749648 11.60097544 109.54233168 17.671875 117.07421875 C19.35290628 119.51171411 19.2415247 121.10170359 19 124 C12.50909768 127.16831978 6.09843855 125.29523173 -0.55859375 123.19140625 C-2.39093379 122.50876976 -4.19917044 121.76188943 -6 121 C-6 120.67 -6 120.34 -6 120 C-0.555 119.505 -0.555 119.505 5 119 C5.47612674 114.35233353 5.47612674 114.35233353 3.86328125 112.3671875 C3.35152344 111.87476563 2.83976563 111.38234375 2.3125 110.875 C-2.59945771 105.53135004 -5.49030668 99.21106791 -6.625 92.0625 C-5.78724527 87.9575018 -4.46294423 87.30862949 -1 85 C4.5500995 80.6583899 8.80055681 76.32448073 12 70 C12.51578613 69.00395752 12.51578613 69.00395752 13.04199219 67.98779297 C14.41019577 63.72069932 14.32501994 59.65917069 14.3359375 55.203125 C14.3425943 54.25491882 14.3492511 53.30671265 14.35610962 52.32977295 C14.36621768 50.32598809 14.37092721 48.3221697 14.37060547 46.31835938 C14.37496539 43.27416499 14.41126811 40.23143685 14.44921875 37.1875 C14.45509017 35.23437992 14.45905739 33.281253 14.4609375 31.328125 C14.47530853 30.42781555 14.48967957 29.5275061 14.50448608 28.59991455 C14.44756698 20.60683226 11.96591276 13.98935125 7 7.6875 C6.49210938 7.04167969 5.98421875 6.39585938 5.4609375 5.73046875 C3.74671849 3.69999008 1.95284655 1.80262759 0 0 Z " fill="#6AB5BD" transform="translate(228,104)"/>
<path d="M0 0 C0.8348291 0.00045319 1.6696582 0.00090637 2.52978516 0.00137329 C3.84191734 -0.00366463 3.84191734 -0.00366463 5.18055725 -0.00880432 C8.08742675 -0.01834432 10.99423884 -0.02025895 13.90112305 -0.02133179 C15.91272506 -0.02454222 17.92432683 -0.02790612 19.93592834 -0.03141785 C24.15862571 -0.03741673 28.38130258 -0.03925697 32.60400391 -0.03866577 C38.02612327 -0.0385641 43.44811182 -0.05221825 48.87020016 -0.06943798 C53.02650053 -0.08053349 57.18276904 -0.08258574 61.33908272 -0.08205605 C63.33864353 -0.08323979 65.33820507 -0.0876835 67.33775139 -0.09538841 C70.12972154 -0.10513917 72.92140455 -0.10232984 75.71337891 -0.09628296 C76.54618378 -0.10190247 77.37898865 -0.10752197 78.23703003 -0.11331177 C83.95796395 -0.08167838 83.95796395 -0.08167838 86.1862793 2.14663696 C85.63072374 6.70219252 85.63072374 6.70219252 84.1862793 8.14663696 C81.39713156 8.25248058 78.63261452 8.2934151 75.84277344 8.29190063 C74.96801865 8.29525925 74.09326385 8.29861786 73.19200134 8.30207825 C70.28513184 8.31161825 67.37831975 8.31353287 64.47143555 8.31460571 C62.45983353 8.31781614 60.44823176 8.32118005 58.43663025 8.32469177 C54.21393289 8.33069066 49.99125601 8.33253089 45.76855469 8.3319397 C40.34643533 8.33183802 34.92444677 8.34549217 29.50235844 8.36271191 C25.34605806 8.37380742 21.18978955 8.37585966 17.03347588 8.37532997 C15.03391506 8.37651372 13.03435352 8.38095743 11.03480721 8.38866234 C8.24283705 8.3984131 5.45115404 8.39560376 2.65917969 8.38955688 C1.82637482 8.39517639 0.99356995 8.4007959 0.13552856 8.40658569 C-5.58540536 8.37495231 -5.58540536 8.37495231 -7.8137207 6.14663696 C-7.06961272 0.04495154 -5.98281155 0.03376291 0 0 Z " fill="#3A4352" transform="translate(49.813720703125,48.853363037109375)"/>
<path d="M0 0 C0.69919052 -0.00335861 1.39838104 -0.00671722 2.11875916 -0.01017761 C4.44125115 -0.01971426 6.76367126 -0.02163208 9.08618164 -0.02270508 C10.69421926 -0.0259158 12.30225659 -0.02927972 13.91029358 -0.03279114 C17.28558022 -0.03878922 20.66084122 -0.04063035 24.03613281 -0.04003906 C28.36865089 -0.03993741 32.70100522 -0.05359016 37.03348446 -0.07081127 C40.35596985 -0.08191084 43.6784154 -0.0839589 47.00091743 -0.08342934 C48.5985629 -0.08461252 50.19620929 -0.08905315 51.79383659 -0.0967617 C54.02543595 -0.10652055 56.25667655 -0.10370005 58.48828125 -0.09765625 C60.39570351 -0.09979378 60.39570351 -0.09979378 62.34165955 -0.10197449 C65.30883789 0.14526367 65.30883789 0.14526367 67.30883789 2.14526367 C66.75328234 6.70081923 66.75328234 6.70081923 65.30883789 8.14526367 C63.08039318 8.25017603 60.84857866 8.28383579 58.61767578 8.29052734 C57.91848526 8.29388596 57.21929474 8.29724457 56.49891663 8.30070496 C54.17642463 8.31024161 51.85400452 8.31215942 49.53149414 8.31323242 C47.92345652 8.31644314 46.3154192 8.31980707 44.7073822 8.32331848 C41.33209557 8.32931656 37.95683456 8.33115769 34.58154297 8.33056641 C30.24902489 8.33046475 25.91667057 8.34411751 21.58419132 8.36133862 C18.26170593 8.37243819 14.93926038 8.37448625 11.61675835 8.37395668 C10.01911288 8.37513987 8.42146649 8.37958049 6.82383919 8.38728905 C4.59223983 8.3970479 2.36099923 8.39422739 0.12939453 8.38818359 C-1.77802773 8.39032112 -1.77802773 8.39032112 -3.72398376 8.39250183 C-6.69116211 8.14526367 -6.69116211 8.14526367 -8.69116211 6.14526367 C-7.88994389 -0.42472576 -6.32486419 0.01897131 0 0 Z " fill="#3A4352" transform="translate(50.691162109375,79.854736328125)"/>
<path d="M0 0 C13.13418918 -0.06939343 26.26833501 -0.12275697 39.40266991 -0.15543652 C45.50093416 -0.17111802 51.59907336 -0.1924016 57.69726562 -0.22631836 C63.57814393 -0.25882319 69.45890165 -0.27683428 75.33986282 -0.28463173 C77.5878451 -0.29019122 79.83582049 -0.30104695 82.08375168 -0.31719017 C85.22313651 -0.33884636 88.36201781 -0.34197187 91.50146484 -0.34057617 C92.9073159 -0.35675491 92.9073159 -0.35675491 94.34156799 -0.3732605 C95.19414688 -0.36913651 96.04672577 -0.36501251 96.92514038 -0.36076355 C97.66810553 -0.36352893 98.41107067 -0.36629431 99.17654991 -0.36914349 C101 0 101 0 103 3 C103 3.99 103 4.98 103 6 C91.95971783 6.04646699 80.91945917 6.08194197 69.87909889 6.10362434 C64.7518835 6.11403402 59.62473532 6.12814153 54.49755859 6.15087891 C49.54384074 6.17270803 44.59018729 6.18458978 39.63642502 6.18975449 C37.75232302 6.19343223 35.8682243 6.20061368 33.98414993 6.21146011 C21.95142728 6.27793758 11.06190842 6.29047794 0 1 C0 0.67 0 0.34 0 0 Z " fill="#6AB6BE" transform="translate(98,194)"/>
<path d="M0 0 C0.69933655 -0.00350464 1.3986731 -0.00700928 2.11920166 -0.01062012 C4.43633888 -0.01943969 6.75317205 -0.01358763 9.0703125 -0.00683594 C10.67692117 -0.00818253 12.28352945 -0.01012301 13.89013672 -0.01263428 C17.25947952 -0.01558584 20.62871637 -0.01128691 23.99804688 -0.00195312 C28.32270744 0.00944148 32.64711979 0.00288218 36.97177124 -0.00909805 C40.2899768 -0.01631581 43.60812325 -0.01402912 46.92633057 -0.00884247 C48.5211795 -0.00750574 50.11603375 -0.00915451 51.71087646 -0.01380157 C53.93760448 -0.0188655 56.16392726 -0.01115882 58.390625 0 C60.29352295 0.00238678 60.29352295 0.00238678 62.23486328 0.00482178 C65.1953125 0.25878906 65.1953125 0.25878906 67.1953125 2.25878906 C66.8653125 3.90878906 66.5353125 5.55878906 66.1953125 7.25878906 C41.7753125 7.25878906 17.3553125 7.25878906 -7.8046875 7.25878906 C-8.1346875 5.60878906 -8.4646875 3.95878906 -8.8046875 2.25878906 C-5.94784144 -0.598057 -4.00113829 0.00501857 0 0 Z " fill="#394049" transform="translate(50.8046875,64.7412109375)"/>
<path d="M0 0 C2.5 0.1875 2.5 0.1875 5 1 C5.66 1.99 6.32 2.98 7 4 C10.45769191 4.58342353 10.45769191 4.58342353 14 4 C15.63676257 2.0399719 15.63676257 2.0399719 17 0 C19.625 -0.3125 19.625 -0.3125 22 0 C23 1 23 1 23.3125 3.25 C22.89687125 6.90753299 21.54049924 8.38893133 19 11 C14.76940457 13.51716012 10.81164791 13.92998237 6 13 C2.10963031 10.8418914 -0.45374222 8.41384367 -2.0625 4.25 C-2 2 -2 2 0 0 Z " fill="#3C464F" transform="translate(158,149)"/>
<path d="M0 0 C4.875 0.875 4.875 0.875 6 2 C6.23880597 9.52238806 6.23880597 9.52238806 5 12 C2.625 12.125 2.625 12.125 0 12 C-2 10 -2 10 -2.25 6.5625 C-2 3 -2 3 0 0 Z " fill="#3E4B54" transform="translate(210,139)"/>
<path d="M0 0 C3.53571429 0.53571429 3.53571429 0.53571429 5 2 C5.0979057 3.49738124 5.12974864 4.99942892 5.125 6.5 C5.12757813 7.3146875 5.13015625 8.129375 5.1328125 8.96875 C5 11 5 11 4 12 C1.5 12.125 1.5 12.125 -1 12 C-2.58894072 10.41105928 -2.16998411 8.75198576 -2.1875 6.5625 C-2.20167969 5.75941406 -2.21585937 4.95632812 -2.23046875 4.12890625 C-2 2 -2 2 0 0 Z " fill="#3A444D" transform="translate(124,139)"/>
</svg>
